<?xml version="1.0" standalone="no"?>
<!DOCTYPE svg PUBLIC "-//W3C//DTD SVG 20010904//EN"
 "http://www.w3.org/TR/2001/REC-SVG-20010904/DTD/svg10.dtd">
<svg version="1.0" xmlns="http://www.w3.org/2000/svg"
 width="150.000000pt" height="53.000000pt" viewBox="0 0 150.000000 53.000000"
 preserveAspectRatio="xMidYMid meet">
<metadata>
Created by potrace 1.10, written by Peter Selinger 2001-2011
</metadata>
<g transform="translate(0.000000,53.000000) scale(0.100000,-0.100000)"
fill="#000000" stroke="none">
<path d="M980 460 c0 -27 -3 -30 -24 -24 -31 7 -56 -19 -56 -60 0 -42 18 -57
64 -54 l36 3 0 83 c0 48 -4 82 -10 82 -5 0 -10 -14 -10 -30z m-2 -81 c2 -27
-1 -38 -14 -43 -23 -9 -44 11 -44 44 0 33 8 42 35 38 15 -2 21 -12 23 -39z"/>
<path d="M80 461 c0 -9 9 -35 20 -59 14 -31 29 -47 56 -58 20 -8 42 -13 49
-10 7 2 18 -1 24 -7 6 -6 13 -8 17 -5 3 4 -5 12 -18 19 -12 6 -39 25 -59 40
-20 16 -39 26 -41 23 -3 -2 -8 4 -11 16 -4 16 0 20 18 20 13 0 27 -5 31 -12 5
-7 2 -9 -7 -4 -8 4 4 -9 26 -29 31 -29 41 -33 43 -20 4 20 -21 61 -47 74 -10
6 -37 14 -60 20 -35 8 -41 7 -41 -8z"/>
<path d="M393 470 c-56 -12 -89 -35 -102 -72 -6 -17 -9 -33 -6 -36 2 -3 25 12
50 33 25 20 48 35 51 32 5 -5 -39 -46 -91 -84 l-30 -23 35 7 c60 10 98 30 113
60 14 27 32 94 25 92 -2 -1 -22 -5 -45 -9z"/>
<path d="M850 465 c0 -8 5 -15 10 -15 6 0 10 7 10 15 0 8 -4 15 -10 15 -5 0
-10 -7 -10 -15z"/>
<path d="M1150 465 c0 -9 5 -15 11 -13 6 2 11 8 11 13 0 5 -5 11 -11 13 -6 2
-11 -4 -11 -13z"/>
<path d="M630 395 l0 -75 39 0 c58 0 91 41 56 70 -11 9 -12 16 -3 30 20 32 3
50 -47 50 l-45 0 0 -75z m69 56 c21 -13 5 -41 -24 -41 -20 0 -25 5 -25 25 0
26 22 33 49 16z m14 -73 c8 -24 -5 -38 -34 -38 -24 0 -29 4 -29 25 0 21 5 25
29 25 16 0 31 -6 34 -12z"/>
<path d="M767 433 c-11 -10 -8 -113 3 -113 6 0 10 14 10 31 0 38 16 69 35 69
8 0 15 5 15 10 0 14 -27 13 -36 -1 -5 -8 -8 -8 -13 0 -4 6 -10 8 -14 4z"/>
<path d="M850 380 c0 -33 4 -60 10 -60 6 0 10 27 10 60 0 33 -4 60 -10 60 -6
0 -10 -27 -10 -60z"/>
<path d="M1048 429 c-19 -11 -24 -44 -9 -53 10 -7 3 -44 -12 -63 -15 -20 11
-43 47 -43 36 0 56 15 56 42 0 16 -7 20 -65 31 -20 4 -20 4 0 11 40 15 50 24
49 45 0 11 3 21 8 21 4 0 8 5 8 10 0 13 -60 12 -82 -1z m50 -32 c3 -12 -3 -17
-22 -17 -25 0 -35 18 -19 34 12 12 38 2 41 -17z m12 -91 c0 -17 -27 -28 -51
-21 -36 12 -20 35 23 35 17 0 28 -5 28 -14z"/>
<path d="M1150 380 c0 -33 4 -60 10 -60 6 0 10 27 10 60 0 33 -4 60 -10 60 -6
0 -10 -27 -10 -60z"/>
<path d="M1208 378 c-2 -40 1 -58 9 -58 7 0 13 19 15 48 3 40 6 47 26 50 20 3
22 0 22 -47 0 -28 5 -51 10 -51 6 0 10 25 10 55 0 49 -2 55 -22 59 -59 11 -66
6 -70 -56z"/>
<path d="M1346 424 c-18 -17 -21 -40 -7 -48 10 -7 3 -44 -12 -63 -15 -20 11
-43 48 -43 62 0 78 62 17 68 -34 3 -45 22 -13 22 22 0 36 16 45 53 6 25 4 27
-28 27 -19 0 -42 -7 -50 -16z m54 -23 c0 -22 -21 -33 -40 -21 -18 11 -4 40 20
40 13 0 20 -7 20 -19z m10 -95 c0 -17 -27 -28 -51 -21 -36 12 -20 35 23 35 17
0 28 -5 28 -14z"/>
<path d="M225 290 c-3 -5 -22 -10 -41 -10 -44 0 -88 -40 -103 -95 -6 -21 -9
-41 -6 -43 2 -2 27 1 54 8 55 13 101 55 101 91 0 23 -6 21 -67 -29 -24 -19
-43 -30 -43 -24 0 5 26 29 58 53 76 57 78 59 65 59 -7 0 -15 -4 -18 -10z"/>
<path d="M284 277 c52 -39 107 -90 102 -95 -3 -2 -28 14 -56 38 -45 38 -50 40
-50 20 0 -49 38 -81 114 -94 37 -7 38 -7 32 18 -19 75 -57 116 -107 116 -15 0
-31 5 -34 10 -3 6 -12 10 -18 9 -7 0 1 -10 17 -22z"/>
<path d="M710 205 c0 -50 4 -85 10 -85 6 0 10 35 10 85 0 50 -4 85 -10 85 -6
0 -10 -35 -10 -85z"/>
<path d="M465 256 c-52 -52 -13 -141 58 -134 39 4 33 21 -8 22 -21 1 -33 9
-45 29 -13 24 -13 30 0 55 13 21 23 27 50 28 44 0 46 18 3 22 -24 2 -39 -3
-58 -22z"/>
<path d="M770 256 c0 -8 -6 -17 -12 -19 -10 -4 -10 -7 -1 -14 6 -5 13 -29 15
-53 2 -38 7 -46 26 -48 12 -2 22 1 22 7 0 6 -7 11 -15 11 -11 0 -15 11 -15 40
0 29 4 40 15 40 8 0 15 5 15 10 0 6 -7 10 -15 10 -8 0 -15 7 -15 15 0 8 -4 15
-10 15 -5 0 -10 -6 -10 -14z"/>
<path d="M580 191 c0 -57 12 -70 63 -68 l37 1 0 58 c0 32 -4 58 -10 58 -5 0
-10 -17 -10 -37 0 -47 -12 -66 -36 -61 -15 2 -20 14 -22 51 -4 62 -22 61 -22
-2z"/>
<path d="M840 191 c0 -57 12 -70 63 -68 l37 1 0 58 c0 32 -4 58 -10 58 -5 0
-10 -17 -10 -37 0 -47 -12 -66 -36 -61 -15 2 -20 14 -22 51 -4 62 -22 61 -22
-2z"/>
<path d="M970 178 c0 -32 4 -58 10 -58 6 0 10 15 10 34 0 47 9 66 31 66 10 0
19 4 19 10 0 5 -16 9 -35 8 l-35 -1 0 -59z"/>
<path d="M1064 214 c-32 -49 20 -112 72 -89 16 8 14 9 -11 13 -62 8 -74 42
-15 42 32 0 40 4 40 18 0 46 -60 57 -86 16z m66 -10 c0 -9 -11 -14 -30 -14
-34 0 -36 3 -15 24 18 17 45 11 45 -10z"/>
<path d="M1180 225 c-15 -18 -7 -31 31 -50 36 -19 28 -39 -12 -33 -18 3 -28 0
-26 -6 6 -18 53 -18 70 -1 21 20 13 40 -24 55 -38 16 -37 30 1 30 17 0 30 5
30 10 0 15 -56 12 -70 -5z"/>
</g>
</svg>
